<!-- Generated by IcoMoon.io -->
<svg version="1.1" xmlns="http://www.w3.org/2000/svg" width="16" height="16" viewBox="0 0 16 16">
<title>expand</title>
<path fill="#fff" d="M16 15.25v-14.5c0-0.413-0.337-0.75-0.75-0.75h-14.5c-0.413 0-0.75 0.337-0.75 0.75v4.5c0 0.138 0.112 0.25 0.25 0.25s0.25-0.112 0.25-0.25v-4.5c0-0.138 0.113-0.25 0.25-0.25h14.5c0.137 0 0.25 0.112 0.25 0.25v14.5c0 0.138-0.113 0.25-0.25 0.25h-4.5c-0.138 0-0.25 0.112-0.25 0.25s0.112 0.25 0.25 0.25h4.5c0.413 0 0.75-0.337 0.75-0.75zM0.75 6.5c-0.413 0-0.75 0.337-0.75 0.75v8c0 0.413 0.337 0.75 0.75 0.75h8c0.413 0 0.75-0.337 0.75-0.75v-8.396l3.5-3.5v3.396c0 0.138 0.112 0.25 0.25 0.25s0.25-0.112 0.25-0.25v-4c0-0.138-0.112-0.25-0.25-0.25h-4c-0.138 0-0.25 0.112-0.25 0.25s0.112 0.25 0.25 0.25h3.396l-3.5 3.5h-8.396zM9 15.25c0 0.138-0.113 0.25-0.25 0.25h-8c-0.137 0-0.25-0.112-0.25-0.25v-8c0-0.138 0.113-0.25 0.25-0.25h8.25v8.25z"></path>
</svg>
