<!-- Generated by IcoMoon.io -->
<svg version="1.1" xmlns="http://www.w3.org/2000/svg" width="16" height="16" viewBox="0 0 16 16">
<title>send</title>
<path fill="#0366d6" d="M15.309 1.513c0.029-0.101 0.033-0.209 0.010-0.317-0.016-0.075-0.045-0.149-0.087-0.217s-0.097-0.127-0.159-0.175c-0.078-0.060-0.166-0.1-0.257-0.121s-0.188-0.023-0.284-0.003c-0.028 0.006-0.057 0.014-0.084 0.023l-0.014 0.005-13.32 4.662c-0.168 0.059-0.311 0.184-0.389 0.359-0.149 0.337 0.002 0.731 0.339 0.88l5.766 2.563 2.563 5.766c0.072 0.162 0.209 0.295 0.389 0.359 0.347 0.121 0.728-0.061 0.849-0.409l4.662-13.319c0.007-0.018 0.013-0.036 0.018-0.055zM7.186 7.871l-4.045-1.797 8.989-3.147zM13.073 3.871l-3.147 8.989-1.797-4.045z"></path>
</svg>
